PathFileType	4	(X/Y/Z)	C:\Users\WrightLab\Desktop\Jo\P4V17.trc
DataRate	CameraRate	NumFrames	NumMarkers	Units	OrigDataRate	OrigDataStartFrame	OrigNumFrames
100.00	100.00	       26	19	mm	100.00	94	       744
Frame#	Time	Headset_Front			Headset_Back			Headset_Left			Headset_Right			Left_Shoulder			Right_Shoulder			Sternum			C7			Left Elbow			Right Elbow			Left Wrist			Right Wrist			Left ASIS			Right ASIS			S2			Left Knee			Right Knee			Left Ankle			Right Ankle			
		X1	Y1	Z1	X2	Y2	Z2	X3	Y3	Z3	X4	Y4	Z4	X5	Y5	Z5	X6	Y6	Z6	X7	Y7	Z7	X8	Y8	Z8	X9	Y9	Z9	X10	Y10	Z10	X11	Y11	Z11	X12	Y12	Z12	X13	Y13	Z13	X14	Y14	Z14	X15	Y15	Z15	X16	Y16	Z16	X17	Y17	Z17	X18	Y18	Z18	X19	Y19	Z19	

94	0.930																									230.25204	1139.86584	-1597.88562				189.76772	870.97784	-1445.65930				108.70484	1001.84210	-1513.03442							101.25229	508.93469	-1562.62854										
95	0.940																									230.27573	1140.62231	-1599.39465				189.75490	870.96106	-1445.80249				108.70606	1001.81586	-1513.02209							101.25297	508.93723	-1562.62183										
96	0.950																									230.28360	1140.61926	-1599.41626				189.75465	870.91028	-1445.80591				108.72871	1001.87585	-1512.79712							101.26483	508.98709	-1562.50549										
97	0.960																									230.28172	1140.60669	-1599.47302				189.74968	870.84296	-1445.86230				108.70667	1001.80334	-1513.01599							101.25964	508.96918	-1562.55676										
98	0.970																									230.23360	1139.81848	-1598.08936				189.74838	870.89923	-1445.87598				108.71527	1001.83990	-1512.93066							101.23515	508.88748	-1562.79895										
99	0.980																									230.25409	1140.56812	-1599.62744				189.72685	870.81293	-1446.11731				108.72075	1001.86566	-1512.87634							101.26014	508.98904	-1562.55347										
100	0.990																									230.22972	1139.79126	-1598.21301				189.72173	870.70416	-1446.17590				108.73100	1001.89429	-1512.77454							101.22959	508.86725	-1562.85388										
101	1.000																									230.23926	1140.52942	-1599.79443				189.70302	870.61560	-1446.38562				108.70666	1001.84027	-1513.01636							101.24117	508.89801	-1562.73853										
102	1.010																									230.19489	1139.74158	-1598.41223				189.68439	870.55731	-1446.59412				108.71788	1001.85590	-1512.90479							101.23438	508.86230	-1562.80444										
103	1.020																									230.20609	1140.47974	-1599.99548				189.68166	870.53430	-1446.62488				108.72772	1001.89197	-1512.80701							101.22611	508.86200	-1562.88879										
104	1.030																									230.16658	1139.70264	-1598.56750				189.31050	873.44769	-1437.44861				108.72678	1001.90784	-1512.81653							101.24615	508.93692	-1562.69128										
105	1.040																									230.15602	1139.68506	-1598.63977				189.27193	873.37012	-1437.60352				108.71025	1001.83636	-1512.98059							101.23128	508.89346	-1562.83899										
106	1.050																									230.13629	1139.66174	-1598.73059				189.28505	873.29907	-1437.81262				108.70467	1001.80841	-1513.03601							101.24207	508.88535	-1562.72827										
107	1.060																									230.11366	1139.64661	-1598.78003				189.24823	873.19751	-1437.96350				108.71927	1001.86157	-1512.89099							101.23211	508.90286	-1562.83142										
108	1.070																									230.10229	1139.63953	-1598.80237				189.22632	873.15192	-1438.12231				108.72837	1001.88184	-1512.80054							101.23385	508.90445	-1562.81384										
109	1.080																									230.07809	1139.61853	-1598.87732				189.16806	873.04218	-1438.31213				108.72438	1001.86200	-1512.84009							101.23284	508.89474	-1562.82324										
110	1.090																									230.08516	1139.60083	-1598.96667				189.14931	872.94482	-1438.53992				108.73956	1001.86792	-1512.68909							101.22681	508.85754	-1562.88123										
111	1.100																									230.06520	1139.58704	-1599.01233				189.12711	872.85675	-1438.70349				108.72559	1001.87061	-1512.82813							101.23242	508.92014	-1562.82971										
112	1.110																									230.06807	1139.58240	-1599.03662				189.54842	869.85107	-1448.11841				108.72093	1001.83105	-1512.87427							101.20876	508.82285	-1563.06213										
113	1.120																									230.06343	1139.57202	-1599.08069				189.55638	869.88440	-1448.02930				108.74412	1001.90192	-1512.64392							101.20407	508.83087	-1563.11072										
114	1.130																									230.05807	1139.55652	-1599.14844				189.53200	869.75720	-1448.30249				108.73451	1001.89215	-1512.73950							101.21326	508.90643	-1563.02380										
115	1.140																									230.05344	1139.54321	-1599.20630				188.88957	870.54730	-1446.56921				108.72168	1001.84912	-1512.86694							101.19767	508.80124	-1563.17322										
116	1.150																									230.04256	1139.54138	-1599.20447				188.88019	870.48816	-1446.67419				108.74481	1001.89166	-1512.63696							101.21489	508.81433	-1562.99878										
117	1.160																									230.04855	1139.52576	-1599.28296				188.88181	870.47186	-1446.65613				108.72943	1001.86395	-1512.78992							101.21121	508.83694	-1563.03845										
118	1.170																									230.03409	1139.50537	-1599.36487				188.87718	870.45129	-1446.70776				108.72111	1001.82800	-1512.87256							101.21416	508.88931	-1563.01318										
119	1.180																									230.03032	1139.48914	-1599.43738				188.86111	870.44470	-1446.88745				108.74953	1001.89807	-1512.58997							101.21800	508.85519	-1562.97095										
